# xmcd
#
# Track frame offsets:
#	150
#	16465
#	32490
#	53502
#	64165
#	82130
#	94492
#	111710
#	132837
#	146810
#	169127
#	187590
#
# Disc length: 2620 seconds
#
# Revision: 5
# Processed by: cddbd v1.5.2PL0 Copyright (c) Steve Scherf et al.
# Submitted via: audiograbber 1.83.01
#
DISCID=a70a3a0c
DTITLE=Leann Rimes - You Light up my Life
DYEAR=1997
DGENRE=Country
TTITLE0=You LightUp My Life
TTITLE1=The Rose
TTITLE2=Bridge Over Troubled Waters
TTITLE3=I Believe
TTITLE4=Ten Thousand Angels Cried
TTITLE5=Clinging to a Saved Hand
TTITLE6=On The Side of Angels
TTITLE7=I Know Who Holds Tomorrow
TTITLE8=God Bless America
TTITLE9=How do I Live (Extended Mix)
TTITLE10=Amazing Grace
TTITLE11=National Anthem (The Star Spangled Banner)
EXTD=
EXTT0=
EXTT1=
EXTT2=
EXTT3=
EXTT4=
EXTT5=
EXTT6=
EXTT7=
EXTT8=
EXTT9=
EXTT10=
EXTT11=
PLAYORDER=
